<svg id="Capa_1" enable-background="new 0 0 512 512" height="512" viewBox="0 0 512 512" width="512" xmlns="http://www.w3.org/2000/svg"><g><path d="m315.915 120.186v-15.03h-45.099v75.083h45.099v-15.029h-30.07v-14.998h15.04v-15.029h-15.04v-14.997z"/><path d="m233.837 105.156h-22.821v75.111h22.821c12.422 0 22.528-10.106 22.528-22.555 0-5.762-2.174-11.025-5.746-15.014 3.571-3.988 5.746-9.251 5.746-15.014 0-12.421-10.106-22.528-22.528-22.528zm0 60.082h-7.792v-15.024h7.792c4.135 0 7.499 3.364 7.499 7.525 0 4.135-3.364 7.499-7.499 7.499zm0-30.054h-7.792v-14.999h7.792c4.135 0 7.499 3.364 7.499 7.499 0 4.136-3.364 7.5-7.499 7.5z"/><path d="m361.512 165.21h-30.287v15.029h30.354c29.527-1.106 29.54-44.292-.079-45.229l-7.665-.007c-4.073-.004-7.386-3.334-7.386-7.422 0-4.093 3.317-7.423 7.393-7.423h30.046v-15.029h-30.046c-12.364 0-22.423 10.072-22.423 22.452 0 12.368 10.049 22.44 22.401 22.452l7.665.007c9.772.165 9.693 14.923.027 15.17z"/><path d="m458.684 105.075h-60.117v15.029h22.544v60.184h15.029v-60.184h22.544z"/><path d="m136.265 195.435h-16.353l32.124 74.912h12.124l32.122-74.912h-16.353l-21.831 50.914z"/><path d="m263.302 270.464v-44.971c0-16.574-13.484-30.059-30.059-30.059s-30.059 13.484-30.059 30.059v44.971h15.029v-14.976h30.059v14.976zm-45.088-30.005v-14.965c0-8.287 6.742-15.029 15.029-15.029s15.029 6.742 15.029 15.029v14.965z"/><path d="m368.507 270.475c16.574 0 30.059-13.484 30.059-30.059v-44.971h-15.029v44.971c0 8.287-6.742 15.029-15.029 15.029s-15.029-6.742-15.029-15.029v-44.971h-15.029v44.971c-.001 16.575 13.483 30.059 30.057 30.059z"/><path d="m458.684 210.294v-15.03h-45.099v75.083h45.099v-15.029h-30.07v-14.997h15.04v-15.03h-15.04v-14.997z"/><path d="m323.286 255.446h-29.792v-60h-15.029v75.029h44.821z"/><path d="m512 135.33v-60.15h-333.11l29.433-28.333-31.855-31.855-30.62 29.302c-15.629-18.484-38.863-29.377-63.187-29.377-45.579-.001-82.661 37.081-82.661 82.661 0 15.242 4.184 30.138 12.1 43.079l12.821-7.842c-6.471-10.578-9.891-22.763-9.891-35.236 0-37.293 30.34-67.632 67.632-67.632 20.215 0 39.511 9.199 52.303 24.762l-28.765 27.526-38.465-35.439-31.805 31.806 70.565 66.268 43.567-41.94c-2.74 34.797-31.911 62.279-67.401 62.279-18.709 0-36.116-7.469-49.015-21.031l-10.89 10.358c14.022 14.742 32.407 23.575 52.391 25.351v120.753h135.461v117.018l120.244 79.426v-126.201h-.11l32.928-12.558-5.356-14.043-132.676 50.602v-94.244h247.105l-69.34 26.446 5.356 14.043 103.241-39.376v-151.46h-15.029v135.317h-406.795v-105.728c44.601-3.776 79.13-44.352 74.809-89.673h331.986v45.121zm-196.177 333.814-88.846-58.687 88.846-33.885zm-209.448-345.02-48.86-45.852 10.627-10.627 38.233 35.225 69.862-66.854 10.627 10.627z"/><path d="m375.493 335.19h16.085v15.03h-16.085z" transform="matrix(.934 -.356 .356 .934 -96.949 159.18)"/><path d="m173.478 135.198h15.029v15.029h-15.029z"/><path d="m240.789 315.616h15.029v15.029h-15.029z"/><path d="m270.976 315.616h15.029v15.029h-15.029z"/><path d="m285.887 413.306h15.029v15.029h-15.029z"/></g></svg>